IKResults
version=1
nRows=5
nColumns=40
inDegrees=yes

Units are S.I. units (second, meters, Newtons, ...)
Angles are in degrees.

endheader
time	pelvis_tilt	pelvis_list	pelvis_rotation	pelvis_tx	pelvis_ty	pelvis_tz	hip_flexion_r	hip_adduction_r	hip_rotation_r	knee_angle_r	knee_angle_r_beta	ankle_angle_r	subtalar_angle_r	mtp_angle_r	hip_flexion_l	hip_adduction_l	hip_rotation_l	knee_angle_l	knee_angle_l_beta	ankle_angle_l	subtalar_angle_l	mtp_angle_l	lumbar_extension	lumbar_bending	lumbar_rotation	arm_flex_r	arm_add_r	arm_rot_r	elbow_flex_r	pro_sup_r	wrist_flex_r	wrist_dev_r	arm_flex_l	arm_add_l	arm_rot_l	elbow_flex_l	pro_sup_l	wrist_flex_l	wrist_dev_l
      0.00000000	     14.85630389	      7.54512115	     -1.84085529	     -0.93980147	      0.94026865	      1.41256402	    -19.98323521	    -12.64395243	     -7.63878291	    -49.09111687	     -0.85680162	    -15.94533254	    -16.02098492	     19.38150629	     -5.61913869	     -6.76908488	     25.37315689	    -12.91078480	     -0.22533570	      0.12147228	    -11.38707254	     -7.90483662	    -23.03619432	    -11.01759458	      3.41505774	     -3.51592954	    -12.71721084	      7.96065077	     36.08533284	     89.95437384	      0.00000000	      0.00000000	     -8.65938712	      8.99751228	      4.05159875	     17.74733841	     89.95437384	      0.00000000	      0.00000000
      0.01000000	     15.28695414	      7.45839428	     -2.09180478	     -0.93024569	      0.94112505	      1.41127844	    -18.98354506	    -12.92631984	     -7.44307277	    -51.20407543	     -0.89367971	    -17.37891597	    -16.67750152	     19.61729608	     -6.86591174	     -6.89835581	     25.26179824	    -12.66370837	     -0.22102341	      0.58813775	    -11.78708573	     -8.04562981	    -23.40884649	    -10.94240338	      3.25812748	     -3.97807601	    -12.74744647	      8.28669456	     35.77741896	     89.95437384	      0.00000000	      0.00000000	     -7.93283683	      8.97805170	      4.90786723	     18.27299934	     89.95437384	      0.00000000	      0.00000000
      0.02000000	     15.80455694	      7.21836776	     -2.06462840	     -0.92101959	      0.94207122	      1.40999298	    -18.21936329	    -12.96314835	     -7.63130829	    -53.09461469	     -0.92667584	    -17.19503316	    -17.02046080	     19.42825998	     -8.06330456	     -6.71145671	     25.22826733	    -12.75450784	     -0.22260816	      0.86482926	    -11.79094024	     -8.02985530	    -23.96978455	    -10.62282535	      2.75575935	     -4.28254309	    -12.65365841	      8.46541936	     35.33761393	     89.95437384	      0.00000000	      0.00000000	     -7.25091564	      9.05313634	      4.84280431	     18.56274101	     89.95437384	      0.00000000	      0.00000000
      0.03000000	     16.06453933	      7.24939939	     -2.55033147	     -0.91195255	      0.94243884	      1.40933678	    -16.91483608	    -13.36777674	     -7.27390939	    -55.05655127	     -0.96091809	    -15.54504230	    -17.79088654	     19.28594930	     -9.17044842	     -7.03444917	     25.15337447	    -12.32120513	     -0.21504560	      1.47490335	    -12.20524507	     -8.12453588	    -24.15548329	    -10.78980608	      2.67248428	     -4.67808347	    -12.67246183	      8.96569441	     34.94386101	     89.95437384	      0.00000000	      0.00000000	     -6.61215103	      9.21282933	      4.71785049	     19.11429551	     89.95437384	      0.00000000	      0.00000000
      0.04000000	     16.43717264	      7.08863398	     -2.66978977	     -0.90282757	      0.94326145	      1.40858507	    -15.95028117	    -13.48760063	     -7.38481474	    -56.59131203	     -0.98770472	    -13.55217704	    -17.94032224	     18.98156926	    -10.33002314	     -7.00712598	     25.05774744	    -12.13959874	     -0.21187597	      1.80674413	    -12.34382989	     -8.13439896	    -24.50823145	    -10.65395889	      2.35057245	     -4.99292146	    -12.50198675	      9.13302831	     34.19593660	     89.95437384	      0.00000000	      0.00000000	     -5.85269528	      9.41847641	      4.67421440	     19.45206878	     89.95437384	      0.00000000	      0.00000000
